<svg xmlns="http://www.w3.org/2000/svg" width="3202.7" height="390.5"><defs><clipPath id="a"/><clipPath id="b"><path d="M944 359c-2-2-9 0-10 5 3 4 7-2 10-5zm0 0"/></clipPath><clipPath id="c"><path d="M944 359c-2-2-9 0-10 5 3 4 7-2 10-5"/></clipPath><clipPath id="e"><path d="M460 3256h3204v389H460Zm0 0"/></clipPath><clipPath id="f"><path d="M2270 3633c-1 3 6 2 9 4l1-3c-3 0-6-2-10-1zm-746-14c2 2 8-1 4-2-1 2-4 1-4 2zm527-1c2-4-15-3-19-1 3 2 16 2 19 1zm-530-5c12 2 22 1 29 1-4-4-21-1-29-1zm-462-1h-7c4 0 2 3 5 3l2-2 1 2 1-2c1 1 6 4 7 2h5l5 1h3l-1-1h10l2 1c1-2 3 1 4-1l-2-1h3l3 1 2-1c1 0 3 4 4 2l-4-3-2-1h-3c-1-2-3 2-5 2h-7c-2 0-1-2-3-2v-1l-2 1c-2 1-4 2-7 0h-5c-1-2-3 2-5 1l-2-1 1-1zm205 1c2 0 15 3 15-1-8-1-10-1-15 1zm-125-1c8-1 3-3 0 0zm661 0h17c3-1-1-1 2-3-7-1-21 4-14 0l-5-1-4 2h-3c-7 0-10 2-12 4 3 0 3 1 3 2 10 0 8-1 9-5h3l2-1s2-1 2 2zm-42-3v3c4 0 13-2 7-4-1 2-2 0-7 1zm-440-1c-7 0-21-1-28 2 2 1-2 3-2 5 17 1 18 0 26-5 3 2-1 2 2 3l7-1c1-2-5-1-5-3 1 0 2-1 0-1zm876 4c-2-4 16 0 19-5l-68-1c-2 3 6 1 7 3 2 2-11 3-7 6 22 3 35-3 49-3zm-706-6c2-1 9 1 8-1-2-1-8-1-8 1zm390 2c-9 0-28 0-35 3l16 1c-1 2 13 3 17-1h1l1 1c12 1 24 0 29 3 4-3 12-1 16 0 8-3 11-3 19-3l4 3h8l-1 1 3 1c-1 2 2 2 2 4 6 0 11-2 7-4l2-1-1-2c5-1 5-3 14-1-1-2 4-1 7-1 0-2 0-4 4-5 4 2 8-1 10 2-3 0-3 1-3 2 12 2 18 3 26 2 4 0 14-3 24-1 0-5 9 0 10-4-8-3-15 0-22 2l1-1-3-1v-1l-3-3c-25 3-48-1-75 1-4 2-4 4-5 5-6-3-12 0-19-3-1 3-6 3-7 5-5-4-14-1-21-4 4-2 2-1 2-5-12-1-13 3-16 6-3 0-1-3-5-2 3 3-6 0-5 2h-1zm-326-4c4 1 12 4 14 1-2-2-12-4-14-1zm-417-7h-7c-2 2 8 2 7 0zm486 0c4-2-5-2-5 0h5zm-14 1h4c-1-1 2-1 3-2-2 0-12 1-7 2zm32 2c2-3 7 1 10-3-1 1 5 3 5 1-1-3 18 1 18-3-18 0-36-1-49 2h12c2 3-1 3-1 3l1 2c-7 1-20 1-14 7 1-2 3 1 7 0s-2-3 2-3c4-1 2 1 5 1 0-2 6-2 7-4l-3-1-1-1-1-1h2zm-79-4c-5-3-14-1-19 1-9-2-13-2-20 0 12 3 32 2 39 0l1 2 1-2c12 0 23 3 30-1h-28l-2-1zm-45 2 6 1v-2l-6 1zm-381-6c-3-1-4-2-7-1-3 2 7 2 7 1zm-25-1c4 0 12 2 14 0-5-1-10-2-14 0zm-288-4c-12-1-5 3 0 2l2 1h5c-3 0 3-4-3-2l-1-1zm661-4c0 2 4 2 7 3 0-1 1-3-1-4l-6 1zm-109 0 2 1h3c1-1 0-2 2-2 0 1 0 2 2 2v-2c-5-1-9-1-9 1zm531-1-5-1c-3 2 6 2 5 1zm-474 0c11 5 20 0 32 1-1 0-2 1 0 1 0-3 7 2 7-2l-65-1c5 4 16 1 26 1zm207 0 2-1c-8-2-20-1-25 0v2l-2 1 1 1c-5 1-12 1-13 3 13 1 7-3 14 0v-2l3-1-1-2h3v2l2 1v2c6 1 3-3 7-1l2 2 3-1 2 3c7 0 7-3 9-5l-5-1v-2zm-326 4c-2-3 14-5 8-2 7-2 16 1 25-2-14-3-35-2-58-1-7 0-16 0-19 2 10 2 29 0 26 4l-1 1 1 1c0 1-5 0-5 2 2 0 1 1 0 1-3-1 0-4-5-4-7 2-15-1-21 4 0-3-10-3-7-6-21 2-46-1-71 2-4-5-35-1-26 1-4 3-12 0-16 3 11 4 13 1 32 2v3c11-3 22-2 29 0 6-1 12-2 16 1 0-2 7-1 8-3 20 3 44 3 56 3-3 0 0-1 2-1 9 2 28 4 43 0 2 2 8 3 12 3-1 0-4-1-3-2 1 0 11 2 12-1 0 4 1 1 3 0 3 6 11 0 21 2 0-2 23-2 23 0l7-2c4 1 5 3 7 5-5 1-7-2-7 1 8 0 11 2 15 0-5-1-6-2-7-3h-1c1-2 6-2 12-3l1 2v-2l4 1h3v-1l14 3c1 0 0-2 2-2 0 0 0 2 2 2l1-2c9 0 22 2 32-1 2 1 13 2 14 0-9-2-24-1-30-5-13 2-26 2-35 5l-1-1-6 1v-1h-1c-46-2-69-1-104-4v-1h-2l-5-3v-1zm230-4c1-1 7 0 6-3h-6c1 1-1 2-1 3l-3-1 1 1c-6 0-10 1-9 4 9 0 9-4 7 1 6 1 12-2 7-4v-1zm52 1c2-2 5 1 7-1-2-4-21-5-29-1l-2-1-2 1h-3l-3-1-2 1c1-2-8-2-7 0 2 2 4-1 5 1-4 0 0 4 2 4v-3l3 1 2-2h3l3 1 1-1c3 2 9-2 10 0l-1 1 1 1c0 6 10 5 12 1l2-1zm-407-5c1 0 1-4-2-1l2 1zm36-4h4v-2h-4v2zm772 3h4c1-3 5-4-2-5-7 1-17 0-12 5l-9 1c1 2 0 3-2 4 8 3 11 1 19 2v-6l3 1zm-794-5v-1c-6-2-17-1-25-1 3 4 12 0 18 3l-1 2h2c3 0-1 1 2 2 10-2 19 2 24-4-3-2-6-1-12-3 0 1-2 2-5 2l-2-1zm498 0c0 1-1 3 1 3 2-2 4 2 7 2 0-2-3-3 2-4v3c6-1 16-4 21-1 0-3-1-6-7-6l-24 3zm-288-2c-2 3 11 2 10 0-4 0-7-2-10 0zm-165-1c-2 3 4 1 7 1 4 0 10 3 14 1-2 0-3 0-2-1l2-1c-6 0-16-2-21 0zm319 1c-2-1 0-2-5-3-2 3 3 5 5 3zm-531-4c-3 0 1 3 4 3l5-2 1 2v-2h4c5 4 1-3-4 0v-2l-1 2h-4c0-1-1-2-3-2h-3zm-368-7c0-1 8 0 5 3h13v-4c-4 2-19-3-18 1zm1123-6h5v-2h-4c0 1-2 1-1 2zm-1114-14c-1 1-2 1 0 3 4 0 6-2 5-4-6 1-17-1-21 1h16zm2901-25c-1-2 2-3 3-4-12-2-24-1-22 5l5 1-1 1h3c3 3 3 1 8 0l4 5c2-1 10-4 7-5-2 2-2 0-2-1h-4l1-2zm-2913-9c1 4 10-5 2-1l-2 1zm2436-5c-1-2 2-2 1 0l7-1-8-2c-1 1-3 2 0 3zm-2238-3c7 1-14-1 0 0zm-188 0h-3c-6 1 5 4 3 0zm741-1c-3 0-6-1-7 1l7-1zm147 1h16c-2-3-9-2-16 0zm-8-1c-10-1 5 0 0 0zm-12 1c4 0 3-2 7 0 2-3-10-3-7 0zm-71-1c9 3 4-2 0 0zm-774 2c1-2 0-4-2-1l2 1zm975-4-5 1 1 1 4-1h2l1 1c1 0 8 2 9 0-6 0-5-3-9-1l-1-1zm88 1c-4-4-10 0 0 0zm946-2c-3 0 11-1 0 0zm-856-1c-19-1-12 3 0 0zm-17 0c-5 1-15-1-17 1 8 0 12 2 17-1zm-35 2c2 1 12-4 0-1v1zm94-2c-6-3-5 3 0 0zm-17-1c-1 3 13 1 8 1-3-2-5 1-8-1zm45 1c5-2 15 1 24-2-10 0-28-1-24 2zm-273 0 4-3-4 4 2 1-2 2c4 0 6 0 6-2-4 0-3-2-3-2zm365-4c-11-1-4 3 0 0zm-28 2c-4-4-10 0 0 0zm-21-2c-14 1 1 4 9 1-3 1-6-1-9-1zm262-1c10 1-10 0 0 0zm-38 0h-3c1 2 7 0 3 0zm-23 0c-5-2-5 3 0 0zm-303 0c-10-2-5 2 0 0zm820 1c6 3 3-4 0-1l-2-1 1 1c-6-1-8 2 0 1l1 1zm-17-1c0-3-10 1-7 1l5-1 6 1h1l4-1c-2 0-3-2-4 0l-2-1-1 1h-2zm-29 0h-4c0 4 13-3 7 1h4c1 0 2 0 1-1l-5-1-3 1zm-739-1c-6 3 6 2 0 0zm-13 2c1-2-1-2-5-2-1 2 4 1 5 2zm903 0c-1-1 3-2 0-2-2 2-7-2-9 0l-3-1-1 2h-3l-1-1-1 1h-8c-1 1 1 1 1 2l1 1 1 2c-4 2-12-1-14 0h-3l1-2-3-1c-6-2 7-2-2-2l-2-1-1 1c0-1-6-2-7-1 7 1 6 2 6 2h2l-2 2 1 2-4 1h-1v-1c-4 1-12-1-13 1 6 2 8-1 13 1h2l-1-1c7 1 8 1 12-1v1h2c5 0 18 1 21-1l1 1h1c2-1 3-1 3 1l5-1 1 1h3c4-1 3-2 9-1-1-3-4 0-7-2v-2zm-273-3c-1-1-5 0-5 1l5-1zm-1514 2c13 0 0-4-2 0l-3-1-1 1h-7c-2 2 9 2 9 0l3 1zm914 0c-2-1-1-1 0-2-1 0-7-2-7 0 2 2 4-1 5 1l-2 1h2l-1 2 3 1c-6 2 8 1 2 0l1-2zm1098-2c9-1-10-3-3 0l1 1v1l-5 1 1-1h-3c-4 0 1 4-5 3l1-1-2-1-2-1h-2v1l-3-1-4 2c1-1-2-2-2-1l-1-1c-1 2-7 0-7 2h-1 1c-6-1-6-2-7 0-5-3-4 0-11 1l2-2c-4 0-2 2-5 2 0-1 0-2-2-2h-2l-1 1-4-1c2 0 2-1 0-1-2 1-2 3-5 4 0-1 0-2-2-2 1 1 0 1-1 1 0-1 3-1 3-3-4-1-7 3-9 0 2 0 1 0 0 0h-3l1-1-3 1h-3c-3 0-1 3-4 3-2-4-15 1-22-3 0 2-7 1-9 3 0-2-3-3-5-3l-2 1h-3l-2-1c-1-2-5-2-2 0-8 1-2-3-9 0v2l-1 1 1-1-3-1c5-1-3-3-4-1l2 1h-2v1l-6-1c0 2-2 1-4 1h-2v1c-3 0-3-1-3-2 2 0 1-1 0-1-1 2-8 4-9 3 2 0 1-1 0-1 0 2-6 0-7 0l1-1h-3c0-2-9-1-3 0l-1 1 1 1c-3 0-5 0-5 2l-1-1 1 1c-6-1-8-4-14-2-3-1 1-4-2-2 3 2-4 3-2 5 6-5 10 2 20 0v1l1-1c5 2 1-3 7 1l2-2c2 1 8 3 9 2-3 0-2-2 0-2 3 2 7-1 10 1v-1h2c13 3 30-1 45 0l2-1c2 2 12 1 12 0 0 0 6 2 7 1-2-1-5-2-2-2 2 2 6 2 10 2h2v-1l4 1c5-3 16 2 19-1h1l2 1c10 0 16-3 23-2h-1 1v1c4 0 2-2 5-2l1 1 1-1c4-1 5 3 7 1l1 1 6-1 1 1h8l-1-1c4 0 14 2 9-1l-4 1v-3l3-1zm-442-2c-2 5 7 1 0 0zm-436 0-1 1h-2c1 2 9 0 3-1zm-199 2h5c9 0-8-2-5 0zm-1197 1c-2-1-7-5-9-3 4 0 6 5 9 3zm173-3c5 1 6 0 7 2l2-1v-2c-6 1-7-2-9 1zm-15-1-9-1c3 4 13 2 9 1zm-200 1c-2 0-1 2-3 2 0-1 0-3-2-3-2 3-2-2-5-1 2 1-2 5 1 4l2-2 7 4-1 1 3-1 3 1c0-1 8-1 2-2-1 1-3 2-4 1v-2c3-1 4-1 4-3l-5 1-1-1zm2269-3-1 1h-2c3 1 10 0 3-1zm-1991 1-6-1v2l6-1zm-259 0c1 0 2-1 0-1-4 2 8 4 0 1zm2269-1c-4 0 9-1 0 0zm575 3c7 0 5-2 7-4l-9-1c0 2 0 4 2 5zm-491-5c-2-3-10 0-2 0l-1 1 3 1 1-1zm-349 0c2 1 5 1 7-1-4 0-6-1-7 1zm323-1c-1-1-5-1-6-3 2 0 1-1 0-1 1 1 0 1-1 1h-2l3 2h-2l1 1h-10l1 1c-2 1-9 3-5 4l5-1 1 1 1-1c4 0 8 1 5-2l3-1c3 2 8 3 6 1v-1zm-1388-4c-2-1-5 1-6 1-1 1 7 0 6-1zm848-5c-1 5 8 1 0 0zm-1091-1h-11 11zm-19 0c0-1-3-1 0 0zm-4-1h-8 8zm-14 0c-11-1-3 2 0 0zm-367 0c-3 1 10 0 0 1zm-30 1c-5-2-7 0-12-2-1 1-10 2-5 3 5-2 16 1 17-1zm-121-1c-3 0-2-2-4-2-2 2 3 4 4 2zm1761-7h3v-2h-3v2zm-191-11h3v-2h-3v2zm-1062 18c-7-2-21-1-30-1-2 0-7-3-6 0 12 1 28 3 36 1zm-522-25c14-3-6-4 0 0zm14-2h-2c2 0 4 4 7 2-6-2-2-1 0-2-5 0 5-4 0-2l-5 2zm-54-2c-2-1-3-2-7-2l7 2zm1690-1h1c0-1 0-2-3-2 0 1 0 2 2 2zm-130-1-6-1c-2 2 6 2 6 1zm-1543 1c-2 0 0-2-3-2-1 2 0 3 3 3l-1 2 3-1 5 2c0-2-1-3-5-3l1-1zm1622-3-5-1c-3 2 6 3 5 1zm-1667 2-5 1c3-1-1-4-4-3 8 3-1 0-3 3-1-2-3 0-4 0h9l5 1-1 2 3-1 5-1-1 2 3-1c1-1 7 0 7-2l-4-1h4-4v-1h-1l-7 2v-1zm507-4c3 3 12 0 12 3 7 0 10 0 10-2 6 3 7-1 11 2l3-4c-5 2-21-4-28-1l-2 1 1 1c-1 2-5 0-7 0h-21l-1-1h-1c-4-1-2 1-5 1 1-1-1-3-2-1 0 2 3 3 5 1v1h2c5-1 9 2 14-1 1 1-7 2-2 2h5c0-2 2-1 4-1h2zm-14-5h3c-1-5-6-1-10-3-1 1 0 2-2 2 0-1 0-2-2-2l-1 2c-1-1 0-2-2-2 0 3-5-2-5 1 9 4 16-2 19 2zm-533 1c4 2 10 3 19 3 7-7-15-8-19-3zm85-1c0-1 10-3 5-4 0 2-10 3-5 4zm151-3c3 1 14 0 9-2 1 3-10 0-9 2zm-14-1c-4 1-6-2-7 0l7 1-1 1h3c2-1 5-1 7-3h-10zm-295-1c-1 1-10 2-5 3l5-1-1 1h3c8 0 14-1 0-2l1-1zm408-3c1-1 3-2 0-2l-2 2h-2l-1 1-4 1-1-1v1c-6 0-7-3-13 0l-3-3-3 2h-3l-1 1c-7 1-17-4-23 0l-2-1 1 2h-2l-1-2-1 2h-3l1-2-3 1h-2c-3 0-4-2-5 0l-2-1v2c-4 1-2-1-5-1 0 2-6 1-7 2 6 2 8-1 12-1v1h2c4 2 9 0 12-1l1 2 1-2c4 2 4 0 7 2 0-2 7-1 9-3 4 3-5 0-4 3 6 1 5-2 9-2 0 1 0 2 2 2 3-1-3-2 1-2 4 1-2 2 2 2 7-2 12 0 21-1l-1 2 3-1c9-2 25 0 33 1h2l-1-1c9 1 5 1 12-1 3 3 17 2 23 2-1 2 3 2 3 1l-1-1 3 1v1h2c1 3 2-2 5-1 1 0-1 2 2 1l3-1 4 1 8-1c4 0 8 3 11 0l9 1h8l2 2 2-2 2 1 3-1c4 2 8 3 10 0l3 1 1-1c-1-2-1-4 7-1h2l-1-1c5 0 8-1 9-3-5 0-3 3-9 2h-1v1l-5-2c-5 0-4 2-7 2 2-3-9-3-4-2 2 0 5 3 2 3l-3-1-1 2h-3l-2-2-3 1c-1-2-4 2-7 1-2-4-6-1-4-5 0 2-3 2-3 3h-3l-1 1c-8 0 3-6-5-3-1-1 6-3-2-3h-2l-1 1-4-1c0 1-3-1-3 1l2 1h-3l1 1c-4 4-16-1-19-1 2-1 6-3 2-4 0 2-3 3-4 4h-2v1c-7 3-3-4-8-1l-1-2-3 1h-1v-1h-2c-2 0-4-4-5-1 2 0 0 2-2 2l-3-1 1 2-10 1c1-2-4-1-4-3v-1h-1c5-2-5-1-6-1h-1v-1c-2 0-2 1-2 2h-3l-1 1c-3 1-5 3-8 1l1-1zm2169-9c-13-1-6 3 0 0zm-39 0c6 0 15 1 11-1-2 1-7-2-11 1zm-6-1c12 2-16-3-14 1 5-2 8 1 14-1zm-1293-3 3-2-5-1c1 1 0 3 2 3zm1241-5-4 1c-4-1-1-1-3-2-2 3-12-2-14 1l8 1-1 2h3l-3 1 1 2h-3l-3-1 1 1h-10l10 1h2v-1c1 1 12 3 10 0l3-1-1-2h2l1 1 1-1c3 2 2 0 6 0v-2h-5l1-2zm-86-2c-1 0-2 0-1-1 1 0 2 0 0-1-9 6-6 4 1 2zm-2028-31c-1 0-6-2-7 0 4-1 6 3 7 0zm189-3c4-1 4-1 2 1l7-1-2-1c2 0 1-1 0-1-1 2-6-2-8 0l-1-1-1 1c-2 3-5 0-7 3l9-1h1zm23-4c0 1-5 1-5 3 4 0 9-2 5-3zm347 0c4-2 7 0 9-1-2-2-13 0-9 1zm17-2c9 1 5-2 0 0zm-465 3c8-1-3-5 0-3 5 2-2 2-3 3h-5c-10 3-7 4-21 2l1-1h-3c-7 2-3 3-12 4-1-4-14 2-12-2-4 1-1 2-4 2-9-3-22 0-31 0 3 1-1 2 2 2 12-2 38 0 54-2l-1 2 2-1c6 0 4-3 9-3l4 2c-3-2-10-1-6 1 2-1 6 1 9-1h10-1 5c-2 0-6-3-2-3 0 3 2 0 5 1v1h2c8-1-1 1 4 1h12c4-2 14 0 17-1h3l-1-1 5 1-1 1h3c4-2 22 1 17-3-6 2-12-1-17 2l1-1h-3l-7-1h-2v1l-26-1c1 1 0 2-1 2l-2-2-1-1zm491-6c-3 0-11 3-8 3s3-2 8-2v2l2-1c9 2 5 0 0-1l1-2zm30 0c0-2 5-1 5-2-3-1-9 1-5 2zm-71-1c4-2-6-2-5-1l5 1zm269 0c-4 0-4-2-7-3 0 2-2 3-5 3l-4-3c-1 3-12 1-7 2 3 0 19 3 23 1zm-767-2c5 1 6-3 3-1l-3 1zm-92 0c0-1 0-2-2-2 0 1-3-1-3 1 2 0 1 2 5 1zm1822-2c-4 1-7-2-7 0 1 0 6 2 7 0zm-752 0c1 0 2-1 0-1-4 2 8 4 0 1zm-106 0c1 0 7-1 0-1-2 0 0 0 0 1zm-237 0c7-1 13 2 17-1-2 0-15-2-17 1zm1105-1 5-2c-2 0-9 2-5 2zm-212-3c-2 2-11 0-7 2 2-2 1 1 4 1l3-2 1 1h1c3 0 6 0 7-2l-7 1 1-1zm-88 0-18 1c4 0 15 3 18-1zm-40 1-5-1c-3 2 6 3 5 1zm-26-1-5 1c-2 2 6 0 5-1zm-436 0c1 2-9 0-3 2-1-1 8 0 3-2zm-50 0c4 4 10 0 0 0zm625 0h-4l-10 1-2-1-5 1-1-1-1 1-47-1c-2 4 8 1 7 3l-3 1c10-3 27-2 43-2l-1 1 3 1c2 2 5-1 5-2h3l1-1s11 1 12-1zm-1985 0c-5 2 6 2 0 0zm1261 2c3 0 1-2 4-2 4 2-3-3-4 0h-3l-2 1c-5 0-10 1-2 2l3 1 2 1-3 2 5-1c-2 0 0 0 0-1l1-2zm-479-3c1 4 7-1 7-2-6-1-1 4-7 2zm1345 0c0-2 3 0 3-1-1 0-2 0-1-1 2 0 10 0 5-1s-11 2-7 3zm-1858 0c1-2-6-3-5-2 2 0 1 2 5 2zm569-3s-6 0-5-1v2c-3 2 5 0 5-1zm-540 0c-1 5 1-1 0 0zm-19 2h2c1-3 11 0 7-2l-4-1c0 2-5 1-5 3zm1869-3c9 3 9-3 0 0zm-1494 0c-5 1 9-1 0 0zm-345 1h3v-1h-3v1zm-280-1c1 4 5 1 7 4 0-2 3-3 6-4 0 1-1 3 1 3 1-2 8 1 7-3-7 3-7-1-21 0zm1257 5c-5-3 7 0 1-3 9 1 18-2 23-1-5-1 10 1 3-2-6 2-17 0-21 3-6 0 1-5-3-2h-3c7 3-12 3-6 5 1-2 3-1 4 0l-1 2 2-1c4 1 16 6 2-1zm-42-3c3-3-2-4-2 0l-2 1v2h-4l1 1c-10-1-10 1 0 1h10c-1-1-6 0-5-2l3-1zm-99-1-7-2c-1 0-1 2-3 1-1-1 3-2 0-2 1 2-9-1-7 2h3-9c2 2 6 1 7 3v1l2 1h4l-1 2 2 2v1l-2 1 1 2c-5 0-12 0-7 2 4-2 6 1 7-1l7 1-1 2 2-1c3-1 8 0 7-3l3-1-1-2c5 0 8 2 5 0h5c-2 1-2 2 2 2 0-3 5 2 5-1l1 1h1c3 0 9 1 9-1l-1-1-1-1 2-1c-4 1-6-3-7 0l-3-1h-4c1 3-3 1-7 1-5 0-20 4-19 0l2-1v-2c0-2 4 2 3-1l1-2zm203 0h5c-7 0 2-3-3-4-2 3-9 0-11 2 5 2 13-3 9 2zm47-5c-6-3-3 5 2 3l1 1c14-3 2 0 0-3 0-1 4-3-1-1l-1-1zm-632-1 2 2c12-1-3-1-2-2zm-119 1c1 0-6-1-2 1 7 0 11-1 2-1zm881 2 2-1c8-1 15 1 20-2l6 2c2-2 4-1 8-1 2-2 2-2-1-1h-25c1 1 0 2-1 2 1-3-8-1-9-1v-1h-2l-5 3 5-1v1zm-148-1c-7 1-2-4-5-2 0 0-4 5-1 3s2 0 6 0v1l2 1c9 1 9-1 0-1l1-2zm-180-3c-5 3 6 2 0 0zm-272 1c-6-3-6 3 0 0zm-75 0 5-1-5 1zm-130 0h3v2l4 3c-4-1-4 3-2 0 3 0 8-3 4-4v-1h-2c-2-3-5 1-7-1l-3-1 1 2h-8l-1 1 1 1-6 1-1-1v1c-3 0-6-4-7-1h-3l-1 1-3 2h11l1-1h2v1l1-1c4 1 9 3 9-1l3-1-1-2h5zm893 1c-4 1 5-3-1-3-1 2-5 2-6 3 4-1 7 2 7 0zm-399-1c5 0 6 1 4-1 1 0 2-1 0-1l-4 2zm-50 0c0-2 5-1 5-2l-6 3 3 1c6 3-27 5 5 3l1 1 2-1c3 2 5 2 6 4h3l-1 1h3l2 1-3 1h3c3 3 11-1 12 2 1-3 10 0 15-2l-1 1h3c2-2 7 1 7-1l-2-1c3 0 8 2 4 0-1-2-8 0-9 1h-1l-1-1c-6 1-6 1-10-1h1l-1-1v-1c-7-2 1 1-5 2h-4v1h-3 2l-2-1c0-1 0-2-2-2l1-1-3-1c-7-2 2-3-1-5-2 3-5 1-9 1l-4 1-2-1-1 2c-2-1-2-2-5-2l1-1zm-194-1c0-1-3-1 0 0zm-222 1c-1-2 8 0 3-1l-2-1c0 2-4-1-5 2h2l-3 1h3c1 1 1 3 3 3 0-2 3-2 0-3v-1zm1856-1h4c1-2 1-2-2-1h-4c-2-3-2 1 2 1zm-210 0 2-1c0 2 3 2 0 3l5-1c-1 3 4 2 4 0-6 1-13-5-11-1zm-1157 1c-2 0-4-5-5-2 2 0 2 5 5 2zm-354 0c9-2 4-2-2-2h-1v1h-6l-1-2v2l-4 1-1-2-1 2-3-1-2 1 4 1 1-1 1 2 1-2h4l2 1-1-1 4-1 3 1 3 1zm1832-3c-15 0-34-1-48 1h48l-1 1h3l7-1-1 1h3l12-2-12 1-1-1h-1l-7 1-1-1zm-99 1h-5c15 2 39-1 47 0h3c-1 0 4 1 4-1l-49 1zm-1282 1 5-3-8 4 1 1c4 1-8 4-1 4 1-4 4-5 4-5zm-425 1c9 0 1-5 3-3-3 3-6 2-6 2l-2 1-4-1-1 1c-1 1 0 1 1 1l-1 1 1 2-3 1h-2c-5 1-7-1-10 1-3-1-9-3-14 0h-1l-1-1h-14l-8 1 1 1c-2 0-1 1 0 1l7-2 3 1 1-2c2 1 1 2 3 2l-1 1h15v2l-2 1-3 1h-3l-1 2-3-1c1 3-4 1-5 1l-3-1-1 2c-3-2-2 0-7 0 3 5-8 1-3 4-6-2-13 1-12-2-1 3-8-1-4 3-11-3-9 2-15-1v-2l-2 1c-1-2-5 1-7-1l1-1-1-1h2c-4-1-6 0-6 1h-2l-1 1c-5 0-9 3-14 1-1 3 5 1 5 2 1 1 0 2-1 2-3-2-7-5-11-2 4 0 7 1 7 2l-12-2h-5c-2 2-6-1-9 0 1 1-2 1-2 2h-1c1-1 2-2 0-2l-6 1h1-1v-1c-9 4-25 0-26 2h-3l-5-1-2 2c0-1 0-2-2-2 0 4-1 0-3 0-4 3-12 2-16 3l-1-2-1 2c-4-2-3 1-8 1 4-4-6 2-9-2 5 5 10-23 2-1-4 0-4 2-7 3 0-3-1-3-4-2v-1h-1l-4 1c0-4-3 0 0 1h-2v1h-1l-4-2-3 2c-4 1-12 0-5-2l-14 2-1-2-1 2c-5-1-10 4-7 2 4 0 3-2 7-1l3 1-1-2h5l2 1 3-1c-2 3 8 1 9 0l2 1 3-1h7l1 2 1-2c3 2 8 0 10-1 3 4 6-1 7 2 5 0 5-2 10-1v1l2-1c2-2 8 1 14-1l-2 1c8-1 9-2 18-1h2l-1-1 4 1c6-2 9-1 15-2l6 2c-1-1 0-1 1-1l1 1 1-1 4-1v1l1-1c5 0 6 2 9 0 0 1 0 2 2 2l5-2 1 1 1-1c4 2 6-1 8 2 17-2 17-2 28-1 3-5 1-1 5 0-1-2 9-2 4 0 4 0 2-2 5-2l3 1v1h2c6-2 3 0 5 1 2-2 10-1 14-1l1 1h8l3-1-1-1c5-1 2 3 7 3v-2h2l-1-1c21-1 50 1 80-2-2 0-1 0 0 0 2 0 2 1 2 2l1 1 1 1c-6 2 12 2 1 0l1-2h-2c0-2 3-2 3-4l-3-2 1-1h-3l2-2 1-1-1-2c15-1 24 2 38-1-5 3 12 1 17 1l3 1-1-1c2-3 1-2 7 0l1 1 1-1h3c3-1-2-2 4-3-3 2 6 3 1 2v-2h4l3 1c1 5 7-1 14 2l-1 1 3 1c0 1 0 2 2 2 0-2 6-1 6-3l3-1-1-1 11 1v1h3l2 2c-4 1-6-1-7 1h-3l1 1-5 1-1-1-1 1h-5c0 2-3 2 0 3h8l-1-1c8 1-1-2 3-2 1 2 13 3 7 0l6 1c-2 0-1 1 0 1l-1 1h2l2 1c7-1 2-1 7-4-1 2 3 1 3 3-5 1 3 1 2-1h2c4-2 4 2 10 1l2 1 2-2c-8 1-7-4-14-1-3-2 2-4-4-2l1-1-1 1c1-2-9-2-8 0h5-7l-1-2-1-1v-1l2-1h-2c2-2 3-1 6 0 1-1 1-3 3-3l3 1 2 1h4c2 1 8-5 0-1l-3-1-3 1c-4-2-12-1-22-1 6-2-5 2-5-1l1-1h-3l2-2 1-1-3-1 2-1h1v-1c3 0 7 3 7 1-1-1-8-4-10-1h-3l3 1-4 1h-1l-2 1-2 1-3-1 1-1-3-1c-2-2-4 0-9-1l-2-1-3 1c-3 0-4 0-5 2h-3l1 1c-4 2-19-1-22 2-4-3-2-1-4 0-5-3-28 0-33 0h-7c0 1-1 2-3 2 2-1 2-2-2-2l1-2-1-1-3-2c-6 1-11-1-7 1l-1 2 1 1c1 3-6-1-9 1l2 1-5-1v1l-1-1h-1l-4 1v-1h-1l-13 5c-2-4 6-2 6-4h-2c-1 3-8-2-9 0 2 0 6 3 2 3 0-2-3-3-5-3l1-2-3 1 3-1-1-2v-1l3 1zm1863-1h6c-4-1 1-3-2-4 0 2-5 1-4 4zm-949-3c9 2 5-2 0 0zm-333 3c3 0 4-2 4-4-5 0-4 2-7 2l5 1-3 3 3 1c-6 2-10 1-14-1 0 1 0 3-2 3 1-1 0-2-1-2v-1l-2-1v-2h-5v-1h-2l-4 1v-1l-1 1h-11c-3 2 1 2-1 5h-3l3 1-2 1h-4c-2 4-13 3-17 4-2-2 1-6-2-4-3 0 3 2-3 2-2-1-1-2-4-2h-3c1 4 25 7 29 1l3 1 1-2c15 3 40-3 54 0 0-2 13-4 12-1 1-2 6-2 7-4-13 1-18 3-28 2l1-1-3-1s-2 1 0-1zm363-4c6 3 5-3 0 0zm354 0-9-1c1 3 5 0 9 1l-1 2 2-1c5-1 8 3 9 0-5 1-4-3-9-1zm-259-1c-3-1-5 4 2 1 2 3 2-1-2-1zm-234 0c-7 0-1 0-7 2-3 0-5-4-7-1 5 2-7-1-7 3 16 0 16 2 31-3-4-1-4-4-8-2l-3-1zm-496 1c6 1 2-3 2-3-3 2 1 2-2 3zm116-5c-10-2-4 2 0 0zm-992 0c-6-3-6 3 0 0zm484 0c-5-4-12-1 0 0zm881-2-38-2c-1 4 4 0 9 1-3 4 22 3 29 1zm-69-1h-6c3 1-9 1-10-2 0 4-6 0-7 2 6 1 19 3 23 0zm-215 0c5 2 11-1 8 0l-5-2-3 2zm-379 0c10 0 17 1 26-1 0 3 7 0 11 3 2-2 18-1 12-4l-40 1c-6 0-16-1-14 2-4-1 11 1 5-1zm1038-3c-2 5 7 0 0 0zm598-3h4v-1h-4v1zm-1912 0c0 1-7-4-3 0h3zm9-1c0-1 7-2 2-3 0 1-7 3-2 3zm33-1 4 1-2-2 2-1-4 2zm920-3h-7c1 1 10 2 7 0zm-129 1c-1 0 9-3 0-2-2 1-2 1 0 2zm-1258 7c5-1 4-2 7 0 2-2 6-2 6-4-2 0-4-4-6-1 5 0-1 3-3 1v1h-2l-2-1c-2-1-7 0-8 2h-3l1 1-7 2-1-2-1 2c-3 0-1 2-5 2h-2l-1 1-4-1c1 1-3 2 0 3 1-2 3-1 5 0l3-1-1-1 5-2 3 1-1-2h10l-1-1 5-1 1 1zm425-10h4v-2h-4v2zm844-3 1-1-1-1-2 1h-2l4 1zm-767-1c5 1 6-3 3 0h-3zm-66-1c-3-2-8 1 0 1l1 2 1-2 3 1c-1 0-5 3-2 3l4-2c-3 0 0-1 0-2l1 1 1-1-1-1-1 1-4-1-1-1zm-19 3c1-2 9-4 5-5 0 1-5 0-5 2l-1-1h-1c-2 0-2 2-5 2l-3-1 1 1c-2 2-4-1-5 1 5 2-4 3-4 4 6 1 3-2 7-2l1 1h3c1 5 2 0 3 0 4 0 6 3 6 0v-2zm-175-3c0-2-2-2-4-3 0 2 1 2 4 3zm85-6c-3 0-9-1-9 1 2-1 9 1 9-1zm-72 1v-1h-3v2h3l3 1 3-1c-1 2 5 0 5 0l-5-1-3-1zm49-3c-5 0-3 4-2 4 0-2 2-1 4 0h3c4 2 0-4-3-4l-1-1zm272-1c-4 0-3 4 0 1l2 1 2-1c4 0 2 1 2 2 6 1 3-3 1-3h-6zm651-5c-11-1-4 2 0 0zm-199 0 15-1c-3-1-3-3-9-2 2 4-9-2-10 1l4 2zm447-3c1-1 11-1 5-2 1 1-10 1-5 2zm90-15-1 1h-2c3 1 10 1 3-1zm-485 3c6 1 3-3 8-2-3 2 1 2 2 0 2 0 1 1 2 2l1-2 16 2c3 0 4-1 5-2 24 1 29-2 49 0l-1 1 3 1c0 2-5 1-6 3l-2-1 1 2c-9 0-17 5-19 1-9 0-6 3-11 5v-1h-2c-2-1-11-4-7-1h-1v1h-5l-2-1-2 1c-3-2-5 1-7-2 0 1 0 2-2 2h-1v1h-7l-1-2-1 2c-5 0-4-2-7 0v-1h-2c-9 2 3 5-8 5v-1h-2c-3 0-1-3-4-3 0 2 1 3 4 4l-1 1h3c3-2 6 0 8-1-2 0-1-1 0-1h7l4-1h1v1h7v1h10l-1-1c4-1 5 0 7 1v-1h2v-1l3 1c1-4 17 1 11-3l64-1c-2 1-2 1 2 1-1 1-1 2 1 2 1-1 3 1 4-1l2 1-1-2h2c4-1-2-3 2-3 4 3 5 0 10-1 0 1-4 3 0 4 0-3 3-3 6-4-3 4 1 0 5 0-2 1-6 5-2 3s16-3 21-3c7 1 46-1 61-2-5 1 15 1 17 1l10-1c0 2 3 1 0 3h-4l4 1v1l-2-1 1 2c-13-1-2 2 1 0h2l-1 3 3 2v1h-3l1 1c-4 0-2-2-5-2-1 3 5 3 5 5-3-2-2 0-7 0l-1-2-1 2h-10c3-1-1-1-3-2-1 1 1 1 1 2l-19 3-1-1h-1l-17-1c8 0-10-1-3 2-1-1 12-1 13 1l-2 1 1 1c-5 1 2 2 1 3-4-1-10 4-6 2 2-2 7-1 8-1h5l9-2-3-1c3 0 3-1 1-1l1-1-1-1c0-2 10-2 14-1l2-2c1 3 9-2 10 1l1 1 1 2c-2 0 0 3 0 4l4-2v1h3l2 1-1 1h1c4 2-2 2 2 3 1-3 4 1 6 1 2-3-5-1-5-4v-3c2-2 6 1 11 0l-1 1h4l-1 1 3 1c-1 1-2 2 0 2l2-1c0 2-5 1-4 4h2c-1-2 1-2 3-2v-3c-3 0-2-1-2-1l-3-1c1-1 2-2 5-2v2l4-1 5-2 2 1 2-1c2 4 2 1 3-1 1 2 5 2 2 0l5 1-2 2 2 1v1h-3l3 1 2 1-4-1c-1 3 4 2 5 3-2-2 5-4 0-4h-3c3 0 4-1 5-2l2-2h-4l2-2 1-2 3-1h3l-1 2 3 1c0 1 1 3 3 3l-1 1h6c-1 1-2 3-5 3h-1c2 1-2 2 1 2 1-2 5 1 5-2-4 0 0-2 2-2v-1h3l-1-1 9-3c-2 0-2-1-2-2h2v-1l5-2h1l1 1c10-1 15 1 17 1h3l-1-1c4 0 6-1 7-2v-1l-2-1c3-1-3-6 3-2-3-3 5-3-1-6l2-1 3-1h3l2 1 2-1h3v-2l4-1c0 1-1 2 1 3l6-2v1l3 1c2 2 7-1 4-1l-1-2 2-1c7 1 16 2 9-1h5l-2-1h6l-1 1h2l2 2h2l1 1 1-1c4 1 6-2 7 0-2 0-1 1 0 1 3-2 0-2-2-3 1-1 1-3 3-3h2c-2 0-1-1 0-1l3 1v-2c7-2 1 2 4 2-1-2 5-1 5-2-5-2-8 0-12-2h-7l-3 1-1-2-1 2c-4 0-2 3-5 3 0-2-1-3-4-3 0 2-1 1-3 1l-4 2c3-3-6-2-10-2l-2-1-1-2-1 2h-1l-14 1c-1-1 1-2 1-3-8 1-1-2-5-2-1 1-5 0-1 2h-2v1l-5-1-4 1 1-1h-3l-10 1c1-1 1 2-2 2-1-2-4-2-8-2-1 1 3 2 0 2-4-2-7 0-9-2-10 4-21-2-31 3l-4-1c-3 3-9-1-14 2v-1h-1l-2-1-2 1-1-1-1 1-5-1h-25l1 1-4 1c2-2-4-5-5-3 3 1-4 1 2 2-3 0-5 2-5 0v-1h-2c-1-5-11 2-12 0l1-2-3 1v-1l5-3h-7v-1l1-2-1-1c7 2 11 0 19 0v1l2 1c-5 2 4 1 5 0l3-1-1-1c34-4 67 1 106-2l2-1c12-2 16 2 26 0l1 1h2c4-1 6 2 5-1v-1l-1-1c7-3 12 2 20 1 1 2 4 2 4 4h-3l-2 1h-4v2l4-1h3l2-1 2 1c6 0 5-3 5-5 4-1 12-2 14 1 27-2 58 3 88 0l4-1c12-2 29 0 41 2v2c21 0 25 8 37 12-15 3-29 3-42 4l2-2-9 3c2-3-7 1-10-1l2-2c-6 0-11 1-14 3l-6-2c-2 0-1 2-1 3-6-3-15 2-16-1l-2 1c-22-1-31-1-50 1h-5c-8 0-10 2-14-1-1 3-16 1-14 4 4-2 2 0 5 1l23-3h3l2-1c29 2 55 1 78 2 2 0 1-1 2-2 15 0 19 3 26 3 4-1-3-3 2-4l2 1-1-1c2-1 5-2 6 0l-1 1 2-1 2 2c3-4 6-1 10-3 5 1 3 6 13 6l-9 1c2 2 8 0 9 0 1 1 1 2 5 2l-2 2h2l-1 2 1 1c-10 1-27-2-33 1l-1-1-1 1c0-1-6-2-5 0l6 1 1-1h19c0 1 0 2 2 2 3-1-3-2 1-2 4 2 14 2 23 1h12l-1 2 3 1-2 2-3-1-2 1c-4 2-7-2-11 0v-1l-1 1c-8-1-8 1 0 1l-1 1h2l4-2c0 1 0 2 2 2h3l-1 1 3 1v1l-3-1-2 1c-4 0-4 2 0 2l-1 1 2 1h6v1h3l4-1 2 1h4v2l2-1 2 1c6 1 2-3 7-1l3 1-1-2h5l-1 2 3-1c-1 1 0 1 1 1l4-2 1 1h1l6 1-1 1c5 1 5-5 8-3-3 2-5 3 2 2l2 2c-5 0-2 1-2 3-4-1-6-1-2 1v1l2 1-3 1 7 1-1 1h2c6-2 15 4 19 0h3l-1-1h2l-1 1h3c3 0 8 2 10-1h-10v-1h-2l-2-1 3-1-1-1 21-2-2-1 5 1h7l2 3v1h2l-2 1 7 1c-3 0-9-1-7 2 9-2 12 0 10-3 0 1 5 3 5 1-2 0-3-1-3-2l1-1-1-1c0-1 13 3 5-1 9-2 10 4 12 3-2-2-2-2 2-3 8 1 5 0 10 3 1-2 5-1 7-1h3l-1-1c3-3 10 0 12-2l1 1-1-1c3 1 7 1 7-1l3 1 1-1c8 3 13-1 17 0l-1 1 3-1v1c1-1 6 0 5-2l2 1c3-1 5-3 12-3l-1 1h3c-1 1 0 1 1 1 0-5 5 2 6-1h2l-1-1c6 1 8 0 12 2 1-1-6-2-1-3l1 1 2-1c4-1 9 2 12-1l3 1-1-1h5v-2h3l-1-1c2-2 6 1 10 0v1h2l9-2-2 3c4-1 4-4 9-4-5 2 3 3 1 0 2 0 2 1 2 2l2-1 1 1h1c6 1 5-2 10-2l1 2 1-2c3 2 5-1 9 1l-1 1 1 2c0 2 15-1 24 0h2v-1l3 1 3-1c1-2 0-3-3-3v-4c1-1 4-1 3-2v-1l-1-1 1-1h3l-3-1h7v-2h1-1c4-2 10-4 16-4l-5 4 5-1c-5-3 6-1 5-3-1 4 8 1 14 0-1 2 4 1 5 2h2v-1c2 1 1 2 4 2 0-4 3 1 6 1 2-3-5-1-5-3l4-1c2 5 5 2 8 4h-1l1 1c5 3 5-3 11-2 0-1-1-2-4-2 5-1 7-3 14-3-6-2 0-2 4-1l2 1-1-2 7-1c3 0 0 0 0 1 6 1 7-1 9-2-2 4 3 1 12 2 4 0-2-1 2-2 2 0 1 1 0 1h5c3 2 5 0 9 2 4-1 6-2 12-1 3 1 0 1 0 3 1 0 5-3 2-3 32-1 65 5 107 2 1 2 5 2 5 3l1 2 1 1h-2v-1l-1 1-4 2-1-1h-2c-9 2-10 1-18 0l-2-1 1 2c-3 1-5-1-9-1l-3-1 1 2h-8c-2-2-8 0-2 1l-5 1c0-1 0-2-2-2-3 4-10-1-10 2-3 0-7-3-7-1h-2v1c-5-1-8 1-12-1h-2v1c-4 0-5-2-7-2h-3l-1 1 1 1-4-1-2-1c0 2 2 2 2 3h-5c1-1-3 2-5-2 8 0-3-2-2 1h-3l-1 1c-3-1-5 2-6 0l1-1h-1c-3-2-6 2-11 2h-2v-1h-1l-11 1c8-2-8 4-7-1-1 2-2-1-5 1l-1-2-1 2c-3 1-6 3-12 3-9-3-10 0-19-2 1 2 0 3-5 3 0-1 0-2-2-2h-2v1c-2 2-4-1-5 1l-1-1c-2 0-2 1-2 2l-3-1 1 2c-8 2-5 0-9-1 0 0-4 0-3-1l-11 2h-1l-3-1-1 1c-2 1-9-1-8 1 7 0 0 1 0 2 4-1 8-2 12 0l2-1-1-1c6-1 10-2 11 0 3-2 8 3 12-1l2 1 2-1h4l-1-1 3-1 1 1 1-1c4 1 18-1 23-1l-4 1 44-2 1 1c9-3 23-1 39-2-1-1 0-2 1-2l1 1 1-1 4 1 3-1-1 1h3l14-1 1 1c12-2 26 0 33-1h3l-1-1 9-1h1v-1c2 2 7 0 7 2-3 0-3 1-1 1l12-3 1 1h7v-1l6 1 1 1 2-1c1 1 7 3 7 1l-3-1h2l-1-1c2-2 8 0 11-2h2l-1-1c2 0 12-2 13 2 14 1 43 2 43 7 18-1 28 7 42 9 9 2 24 2 29 6 6 0 16 0 12 3 8-3 5 3 12 1-1 2 3 2 2 5h11c0 5 29 5 38 2l-2 2c12 1 20-1 29 1h1l1 1c-2 1-8 1-8 3 5 1 18 3 20-1l-5-1h3l-1-2c6 0 19 3 24-1 2 3 8-1 9 1 4-1 4-4 7-5 8 0 7 4 14 5-4 3 0 3 1 6v2c-2 0-3 1-3 2h-9v1l18 5c-1 3-7 1-11 1 4 5 4 5 9 8-5 3-15 3-14 9h-14c-3 0-2 1-5 2-5 2-13 0-10 6h-3l-1 1-5 1-3-1-1 2h-10c5 0 8 4 10 2-2 0-1-2 0-2l2 1 2-1h7c10 3 19 0 28-1v1l1-1 16 1v-1h2v-4c13-2 24-2 24 5 0 2-6 3-4 5-5 0-8 3-12 2 1 1 2 2 0 2l12 4c0 2-3 4 2 4-11 4-26 6-41 8 1 1 2 3 1 5-11 2-19 1-27 3l1 2h-2l1 1-51 1c-3 0 3 2-2 3l9 3c-9 4-31-1-33 7 11 4 23 0 33 1l-1 2 3-1c2 2 5 3 9 4l-18 3c-2 1 1 1-3 2-1 2 1 3 5 3l-7 1c1 4-3 8 7 10l-1 2 3-1c-1 3 2 6 8 8h-2l1 1c4 4 6 8 17 8 0-3 5-4 7-6-3 0-7 0-9-2h-1l-1-1 20-1v2c1 0 12-2 8 0 6-3-2-7-7-9h3l-1-1c-1-2-3-2-5-3 3-2 7 0 10 0 5 0 7-3 12-3 4-1 8 1 11 1l8-1c16-4 8-10 26-9 6 0 12 2 21 4 0 7 1 15-8 20 10 3 3 6 8 10l-7 1c-2 6-1 12 11 13l2-2c3 1 3 4 8 4v5c-11 0-17 10-5 6 4 3-8 4-7 8-3-1-12 0-16 1l-2-1-3 1c-6-4-7-2-17-2 8 4-6 3-9 7 0 2 8 0 11 1-2 2 4 1 3 4-3-1-4-1-3 1h-4l-2 1c-8 2-12 1-15 5l3 1h-2l1 2c-5 1-3 4 5 4-2 1-6 2 0 3l-1 1 1 2c-18 2-32 6-49 9 2 2 9 2 14 2 5 3 3 5 7 6-3 1-8 0-12 2-2 2 2 2 2 4-19 4-23-1-42 1 4 2-7 2-10 3h-3l1 1c-7 2-22 0-21 5-18 0-28 7-45 5-3 3-13 2-12 6-7 0-29 4-26 8-3 1-4 0-4-1-15 3-38 4-52 5l-2 2-48 4c-12 1-24 1-33 6-12 0-17 2-31 3-13 1-24 5-37 7-18 2-44 1-52 6-9-2-15-1-24 0 0-1-2-1-2-3-6 3-38-2-38 6-5 0-6 2-12 1l-4-4-93-7-4 3c-13-1-16 0-26 1 1-2-7 0-5-3l-40 3c-5 4-14 3-17 6-7-2-11-3-18-3-2 0-3 1-3 2-10-2-32 2-49 3l-12-1c-10 0-19 3-28 3-3 1-17 0-20 2l-1 1 1 1c-6 1-6-1-7-3-7 2-20 1-23 4-6 1-11 1-12-1-5 0-8 1-10 3-21 3-28-6-42 1-6 0-15-1-14 2l-3 1 1 1c-17-1-32 4-47 2l1-1h-2c-1-4-19 1-21-1-2 0-2 2-2 3-31 2-51 3-83 0-3 0 1 1 0 2-5 0-8-2-12-3-20 2-32 0-51 1-3 0-3 1-3 3a678 678 0 0 0-45-2c-10-3-49-1-71-1h-33l-11-2c-12 0-25 2-34-1l1-1-1-1c12-1 26-2 34-1-3-6-18-3-31-4v-2l-5-1c-1 6-18 3-23 1l-1 2c-14-4-33 2-52-3-22 3-48 3-73 3-9 0-30-3-31 0-2 3-5 0-6-1-17 1-26-3-36-2l-2 2c-2 0-1-2-2-2l-27 2c-10-6-17 1-33 0-3-4-23-2-30 0l-3-3c-4 0-6 3-7 0l-4 3c-10-5-33 3-41-3-5 0 2 5-2 2-3 0-1 2-4 2l6 2-1 1 1 2c-7 2-19 1-25 1l2-1 1-2-1-1c2-1 15-2 11-4l-2 1c-6 0 3-3-2-3-4 3-11-1-19 2-9-6-29-2-38-5-2 3-3 5-11 5v-1h-3c-1-3-1-2-4-5l-10 2-1-1h-2c-15-2-29 7-44 2-5 0-5 2-10 1l-4-4c-5 3-18-3-15 3-6 0-5-3-5-5-15 2-26 6-47 5 0-4-11-2-14-5l2-1v-1c9-2-5-2-7-3 3 1-13-1-6 1l2-1c-1 3 4 2 5 3l-1 1 1 1c1 2-6 4-1 4l-20 1c1 2 3 2 7 2l-17 5h-3l1 1c-3-2-14 0-17-2l3-1-1-1h7l-2-1h3v1h2c3 0 5-1 5-2h-3l1-1-3-1c4-2-3-4-9-5-2 1 1 2 0 3-8-1-20-2-22 3-8-5-36-5-45 0l1-1h-3c1-3-1-3-5-3 3-3-1-5-7-6l1-1h-3c0-5 12-1 9-5-15-1-34-3-31 5h19l-1 1h2c1 2-1 2-1 3-6 0-7-2-9 1l-3-1v1c-7-2-10 0-18-2-2 0 0 2-3 2h-4v2c-4 2-2-3-8-2-8 0-8 4-13 5-3 0-3-2-5-3-2 0 1 1 0 3l-8-4c-3 0-6 3-2 4-6 6-25 5-31 3l1-1h-3c3-3-2-11-12-12-2-1-1 1 0 0-1 2-4 1-4 0-3 1-3 3-5 4-4-2-5 0-10-1l1-2-3-1c9-4-5 0-2 1l-1 1 1 1v4l-2 1v1h-15c-1 2 2 1 5 1-3 3-13 2-17 2l1-1-3-1c0-1 1-2 3-2-7-3-14-1-24-3l1-1-3 1c0-2-3-2-3-5-7 0-26 2-33 1 3 3-1 3-5 4 0 2 6-1 5 3-13-1-15 2-24 0-3 2-14 1-16 3-9-3-15-10-31-7 2-2 1-5-2-2h-2v1c-5-2-18-1-22-3-5-1 4 3-4 2 1 2 4 4 9 4-4 5-14 1-19 2 0-2-3-2 0-3-4 0-9-1-9-3l3 1-1-2c0-2 11 2 5-1l-5-1c2 0 2-3 0-3-4 1 2 2-2 3l-2-1-1 2h-2l1-2h-3c-2 0 0-3-3-3-1 2 0 4 3 4l-1 1h3c2 1 1 2 4 2-2 2-12 4-4 5 0 3-6-2-7 1-3-1 0-2 0-3-1 2-8 0-9 2 1 2 3-1 6 1-1 2-5-1-6 2v1c-2 0-1 2-1 3-2-1-3-3-4-1 0-4-8-5-5-8-4 4-7-1-12-1 0 1-8 2-4 2-10 0-35-9-39 4h-3 3l-2 2h-8l1 1h-5l1-2-3-1c6-3-4-4-2 0l-1 2 1 1-3 2-6-2h3l-3-1c0-1-3 0-3-2-2 1 0 2-3 4-2 0-1-1 0-1-5-1-9-3-18-3 4-3-1-1-3-4l1-1-1-1 1-1h5l1-2c3 0 3-2 7-1l-1 2h2v1h6c-3 0 0-1 0-3l1 1 2-1c3 1 3 0 3-1l3-1-1-2h2l3 1 2-2 4 1 2 1 3 1c1 4-4-1-4 2h2c-4 2 2 0 4 0v1l1-1c8-1 2-3 7-4-1 2 4 4 4 2-6-2 8 1 1-1l-8-3c-4 2 0 1 2 2-12 0-3-3-13-1l-1-1h-6l-3-1-2 2h-5l-3 1 1 2-3 1-1-1h-4c0 2-3 1-2 0l1-1h-3c-1-2-7 2-10 2l-3-1-2 1h-6l-1 1h-7l1-1-1-1c3 1 6-3 3-3-1 2-1 0-3 0h-4c-2 0 0 0 0-1-6-1 0 4-7 2 2-1 2-2-1-2l-6 1-2-1 1 1h-4l1-1-3 1c-4 0-2-1-1-2l-1-1-1-2 5-1h3l-1-1c2-3 8 2 9-2 5 1-3 2-2 3l2 1h3-2c-5-1 2-3 2-4l7 1v1h2l-2 2 5-1h3l-1-1 5-1c0 1 0 2 2 2l-1 1h3v1h1c-2 1 0 1 0 2-8 2 6 0 7-2l3 1 1-2h3l1 1h3c5 2 6-4 3-1h-3v-1h-4l-3-1-1-1-1-2c-3-1 0-1 0-3l21 3c1 2 0 1 5 3l3-3c2 0 7 2 6-1 3 1 6 2 8 0 2 0 2 1 2 2l5 1c1-1 4-3 9-1 2 0-1-3 2-5l2 1 1-2c7 0 18 1 23 4 6-3 21-3 26-1 3-3 11-1 10 1 1-2 14-5 9-2l5-1v-1c-5-2-7 3-9 0 2-3-20-2-27-4h2l-1-1c4 0 5-2 11-1-3-5-19-3-23 0h-2v1h-10l1-2-1-1c1-2-5-1-5-2l2-1v-2h3v-2h-3v-1h-2l-2-3c3 2 7 0 14 0l2-1h3c5 4 9-4 12 0 3-2-1-2 2-3h24c9 5 28 0 37 3 1 0 1-2 3-2-2 3 11 2 11 1-6 0-3-4-9-4-2 1-3 3-9 2-2-3-5-5-10-6-2 2 1 3-2 4-24-2-49 2-69-1l1-1-1-2 1-1h-8l3 2 1 1 1 1c-2 3-10 0-17 1-6 0-9 3-14 2-2 0-2-2-5-2-10 0-19 2-23 4l-9-4-10 5c0-2-3-2-7-2-1 3-9 3-12 4v-3c-7-1-12-1-17 1 1 3-4 4 0 5 6 0 7-3 13-4 1 2-5 1-5 3 3-1 6 2 7 0l-3-1h14c1-1 1-3 5-3-1 1 3 1 3 2l-2 1h2c-1 3 4 1 5 1v1h2c9-2 10 1 14 0v1h2l1-1h6l2 2 3-1-3 1 1 2c-4 1-15-1-14 3l-2 1 1 2h-13v1c-2 0-1 1 0 1h-13l-1-1-1-1h2v-1h-4v1l-3 1 1 1h-5c-1-1-1-3-5-3l-12 3c1-3-7 0-11 0l-20-2-23 2v-2c-9-1-17 2-23 5v-2h-3c-4-3-11-3-16-3 2 3 2 2 0 5-5-1-14-7-17-1l-35-4 1-1-2-1c-1-1 3-2 0-3 1 2-12-1-6 2l4-1c0 2-3 2 0 3l-1 1 1 1c-7 2-11 1-16 0-1 2-6 2-7 4-9 0-14-2-21-5l1-1h-2c-1-2 1-2 3-2h3l1-2h1c5 0 5-3 7-4l-8 1c0 3-3 3-3 3l-1 1-5-1 1-1-1-1c5-1-7-4-9-2h-1v-1c-4 3-1 1-7 0-1 2 1 2 1 3v2h-7c0-1-4 2-7 0l1-2h-2c2-4 0-3-4-1h-3c-3 0 0 1 0 2l-18-4-2-1 1 1h-5l-3-1-1-2 2-2 2 1h6c1-2-2-1-5-1l-2-1-1 1-4-1-1-1v1h-4c-8-5-45-4-66-10 5-4 20-2 26-4h4c4 0 6 1 7-2v-1l-2-1 7-2-2-4c-19 2-43-6-57 1h-19c-3 0 0-1 1-1-4-1-14 4-12-3-13-2-25-2-36 1v-1h-2c1-1 0-1-2-1l1-1h-2c-19-3-43-1-63-6l3-1-1-1h2c1-2-3-2-5-2 22-3 46 5 57 1 8 5 15 1 26 0-2 5 31 2 38 0-3 2 21 4 33 4l5-2c3 0 5 2 5 2 1 0 19-4 19 0 4-1 1-3 4-4-18-2-35 1-52 0-5 0-9-2-14-1l1-1-3-1c2-1 2-2-2-3h30l-2-2 3-1-1-1-2-1c1-1 6-2 7 0 4-1-2-2 2-3 21 3 50 0 66-2h-1l1 1v1l3 2c19-3 47-1 71-3 0 5 16-2 16 2 2-5-10-3-16-3-2-1 0-2-1-2-6-2-15 0-12 1-6-2-19-2-23-4v-1c-2-1-6 2-7 0 0-1 3-1 2-2-3-2-8-2-12-1-2 0-3 3-4 3s-3-2-3 0l-1-1h-1c-3-1-4 3-5 1l1-2-3 1-21-2-24 2c-11 0-23-3-38-1 3-3-1-1-2-4 12 0 15-2 24-1h5l-1-2h2-4c1-2 7 0 7 0h5l4-2 5 1c4-1 5-3 9-2-2-3-5 0-11-1-2-1-1-1 0-2v-4c2 0 7 0 7-2h3l1-1c4 1 6-3 3-2l-5 2h-4l-1-1h-2c-3 2-10-2-11 2-3-3-3 0-10 0 8-2-10-4-9 0-3-4-9-2-19-2 2 1 2 2 2 4-3-1-4-2-3-4l-2 1h-7l1-1h-3l-9-1c4-2-1-2 0-5 6 1 10-3 14 0 4-1-2-2 2-3 4 1 11 2 7 3l10-1v1h2l7-3h3l-3-1 2-1 2 2 1-2h2l1 2 3-1c-3 3 0 3 3 1h2l1 1 4 1c3-3 7-2 10 0h4l3 1h3l3-1c2-1 2-2 5-2l1 1v-1c5 1 6-3 2-2l1-2-3 1h-5c5 0-2 1-1 2l3 1h-5l-2-1h-3l-2-1h1l-1-1c0-2-5-2-9-2l1-1-3-1 2-2h2v-1l3 1 4-1h2v-1h1l2 1h4c0 2 9 2 5 0h2l-1-2 2-1h3l1-1 3 1 1 1h6l1 2 3-1v1h-3l1 1c-3 2-7 0-11 2h15l-1-1h5v1h2l7-2-3-1 2-1-1-1h6l-1 1h2c4 3 4 2 6 0 2 0 4 3 5 1-6 0 6-2 0-2l-4 1 2-3h3l2-1c6 0-5-4 4-3l1 1h2c1 3 6 2 9 0 0 1 0 2 2 2l-1 1 1 1c1 0 2 1 0 1h-4c0 3-11 5-3 6 2-1 2-3 5-4h2v-1h1l2 1 2 2c2 2 6 1 7-1h1l2 1 5 1v-3h3l-1-1 2 1h3c5 4 17-3 21 0l2-2h3l4 2c-1-3 5 2 5-1l-7-1 2-2h-4c-1-2 4-1 4-3l2 1h1l4-1c0 2-1 4 3 5l2 1 2-1c7 0 0 1 0 2-2 3 5 5 1 9h-1c6 3 6-2 7-2 0 2 16 0 14-1 3 1 7 2 8 0-2 2 7 3 2 2 0-2 1-3 3-3-3 2 1 2 4 3 0-2 0-3 2-3-1 2 0 3 3 3 2-2 8 2 9-1l1-1-1-1c2 0-2-1 1-2l6 2c0-1 6-3 5 0l-3 1 1 2c1 2 6 1 7 0l-3-1v-2c-2-2 4-1 7-2-1-1-1-2 1-2 3 4 5-4 12-1-2-3-8 0-12-3 0 1 1 2-1 2 0-5-5 2-7-2l-2 1c-2-1-3-3-9-2l1-1-3-1c-3-1-5-3-6 0l-3 1 1 1-4 1c0-2-1-2-3-3-2 4-13 0-11-1-1 2-1-1-3 0 0 1 0 2-2 2-3 0-3-2-7-2-1 1 4 1 4 2-7-2-13 2-16-1l3-1h-3c-2-3-4-3 2-5 0 2 1 1 3 1h3l-1-1c17 5-5 0 16 0v-4l2 1-1-2c8-2 10 8 9 5l4-2c3 3 2 0 8 0l7 2c-5 0 4-3 9-2h12l-1 1h3c2 2 5 0 8 2v3l-3 2c6-1 14 0 5-2l3-1-1-2c4 0 4-2 7-2h2v-1c11-1 12 3 17 0 2 3 8 2 7 1 5 1 0 2 7 3-4 0-6 0-5 2l-3-1 1 2c-1 1-10 0-9 3l18-2v1l1-1c8 1 8-1 0-1l1-1-2 1h-2v-1h-2l4-2c0-2-1-3-4-4h-7c-5-1-13 0-9-3-13 2-14-2-22 2-1-1 2-1 2-3-4 0-6 3-6 0h-10l2-2h2l-2-1c7-2 11 1 14-2 4 4 15-3 24 1h54c2 1 0 2 5-1l-2 2 1 1 1 2 3 1 2-1-1-1-1-1c3 0-1-1 2-2 2 2 9 1 11 1-1 0-2 3 1 3 8 3 15 0 23 0l-1 1 3-1c1 3 3 0 7 0l-1 2 2-1h5v-1l1 1h1l7 1 2-2c0 2 5 2 5 0l1 1h1c5 0 6 2 3-1l5 2 3 1-1-2c13-1 17 3 26-1-1 3 8 3 7 2-5-1 3-1 5-1v2l2-1c20 1 40 1 63 4-1-4 2 0 5 0 4-2-2-3 2-3-1 5 23 0 24 4 1-1 2-2 5-1-1 0-2 1 0 1l45-1c7 1 21 5 24 1 9 4 28 3 46 2l-30-3c6 1-5 2-3 0 3-1-3 1-4-1l-1-2-2 1a511 511 0 0 0-44-3l1-1h-1 4c7-7-4 1-2-3l-1-1-1-1c0-2-4 0-3 1h-3l-1 1-3 1-4-2h-4l-3-1h-1c-6 3-5-2-9 0h-2c-3-1-10 3-7 0-5 1-7-1-10 1-3-4-2-1-4 0-2-3-8 2-12-1l-5 3c-3-3 7-3 2-3-12 3-13-2-26 0l-3-1h-2c-2-2-1 1-4 1h-5l-1-2-1 2c-4-2-13 2-12-1-8 1-16 0-22 2l1-1c-6-1-5 1-8 2-1-1-4 0-4-2h3-3c0-2-8-1-9 0v-2l-1 2c-4-1-5 0-9-2 0 2-1 3-5 2l1-1-3 1c-3-2 2-4-3-2h-2v1c-4 0-2-3-5-3h-3l1 1c-4 3-10 2-21 3 0-2-5-1-3-4 2 0 1-1 0-1-2 2-4 1-6 0-1 2 4 2 4 3l-5 2c-4-2 2-2-2-3-2-1-10 4-12 1h2v-2c-8-1-3 0-6 1-5-2-8 1-14 3 6-2-4-4 0-2-2 4-5-1-8 1v-1h-2c0-1-5-4-5-2h-3l1 1c-3 2-7-1-10 1v-1h-2c-8 1-5-1-7-2l-3 2h-1l-1-1c-6 1-4-1-7-1l-2 1h-2l-1-1-7 1h1-1l-7-1-1 1h1c-6 1 0 3-4 3-1-1-5-4-7-2h-2l1 1-9 2c2-1 1-2 0-3h3l-3-1-2-1 3-1-1-1v-1c2 0 4 3 5 1l-2-1c2 0 1-1 0-1 0 2-1 0-3 0l-2 1-2 1 1 1-2 1-3-1 1 1c-3 1 0 2 0 3l-1 1 1 1c-1 2-5 2-2 0-5 2-7-3-10-1 3 1-13 2-14 1l1-2-3 1c-4 3-8-3-10-1h-3l-1 1c-2 0-4-3-5-1 4 0 0 2-3 2l1-2h-3c-4 0-2-4-9-3h-1v1h-4l-3 1-2-2-7-1v1l-3 1-1 1c-1 0-1 2-3 2 3-2-1-5-3-4h-13v-1l-1 1-4 1h-2v1c1 2-2 2-5 2l1-1-1-1c-5-3-19-4-27-4h-3l-1 1c-4 2-2-4-12-4h-4c-1 0-8 3-15 0l1-1-3 1h-5l1-1-3 1h-7l-2-1v1l-6 1-2-1 1-2-1-1c0-2-5-2-9-2-2-3 4-2 5-4l2 1h2c6 0 11 2 14 4 1-4-2-2 7-3 3 1-3 2 1 2h4c-2-1-4-1-4-3 2 0 1-1 0-1-7-1-18 1-17-1h-2l1-2-2 1-4 1-2-1-1 1c-8-1-4-2-13-1l-2-1 1 2c-8-2-12-4-21 0 8-2-5-5-11-4h-2l1 1-5-1-1-1h-3c-3 1-5-2-12-2l1-1h-3c-4-1-6 2-7 0l1-1-2-1h1c-2-1-8-2-14-1l-1-3-1-1-1-1 5-3c10 1 19-1 28 1 1-2-2-3-5-4l1-1-1-1h1c-1-2-12 1-13-4-7 2-27-2-33 2-13-3-20-2-33-1 6-6-16-3-18-3-4 0-2-4-8-4 1-2 9-1 15-1-8-1 1-4-3-3-6-4 2-2 5-2 23-4 85-1 109-5-3-3-6-1-8-5-22 2-45 0-66 1-12 1-33 4-45 0 0-1 4-1 3-4 14-1 30-1 38-5l2 1h2l46-4c4-2 2-2 6 0 5-2 2-3 5-4 4 0 2 0 2 1 12 2 15-1 19-4l-4-1c1-2 8 0 5 2 8 0-2-4 6-3h1c5 0 7-1 9-3h-7l-1-1-1 1 1-1h-2c-8-2-20 0-26 1 0-4-15-1-21-1l-5-1c-11-1-29 3-44 2l1-1-1-1c14-4 24-5 35-6l-4-2v-1h-1c6-2 19 0 21-5 3 0 12 2 10-1 4 1 12 0 16-3v-2c3-1 5-3 10-3-5-3-1-2 3-2-3-2 1-2 4 0-1-4-3-3 3-2l-1 1h3c1 3 5-3 5 0l-1 1h1l-1 2h-3l1 2-4 1h11l2 1v-1c3-2 5 0 8-2h1l1 1c4-2 15 0 16-4h-2c2-1 2-4 7-4l1 1h2l4 2 10-2h1l1 1c29-2 37-2 61-5 0 4 12-2 13-1v1h8l-1-1c8-3 21 0 25-4 4 3 9 0 14 2 0-2 3 0 10-1l1 1 1-1c4 2 5-2 10-2-1 1-3 2 0 3l-1 1h3c2 1 5 1 7-1l1 1h2c4 0 2-2 5-2l1 1h3c3 0 1 2 5 2 1-2 5-1 2-2l1-2h2c6 1 8-2 11 0l-4 2h7c5-2 6 0 9-2l2 2-4 2c3 0 7 0 9-2-2-1 2-2 0-5 3-2 6 1 3-2h2v-2l3 1-1-2h9l-1-1c1-3 5-2 7 0l-1 1h3c2-1 2-2 2-3h3c2 2 9-1 14 1h3l-1-1 16-1-1 1h9l4-2 7-1c4 0-1 1 5 1 2 1 2-1 3-1l16-1c-2 0 3 3 2-1 2 3 5 0 5 3 5-2 7-2 14-1-4-2 8-2 12-1 0-2 3-1 7-3 2 1 2 2 5 2l-1 1 3 1c1 1 2 2 5 2l-1 2 3 1h-3l1 1-10 2-1-1h-3l-5 2-4-2c1 1 0 2-1 2-11-2-28-3-32 2-4-1 0-3-8 0-3-1 0-4-4-4 1 5-9 3-15 4-4 0-16 1-16-2h-3c-1 2 3 1 3 2-4 1-4 2-2 3l-1 1 3 1-5 1h5v2l-3-1 1 2c-5 0-12-2-14 1h21l-1 2 3-1c6-1 8-1 9 1l8-2-1 2 3 1c6 1 7 5-3 5l-3-1 1 2c-5 0-5 2-12 1 0 2 0 3-2 3-6-2-8 2-16 2 5 1-6 0-5 1h-1l-1-1c-4 2-1 0-5 0 0 2-1 1-3 0 0 2 0 3-2 3 0-1 0-2-2-2l-5 4c-1-1-3-3-3-1v2c-3-2-9 1-11 2 4 1 14-2 18-2-1 0-3 2 0 2l15-4c7-1 15-1 11-4 4 0 10 0 15-2h1l1 1 9-1h2l-1-1h5l-1-1h2l2 1-1-2h2l2 2 3-1c1 1 3 0 4-1h-2l2-1h2l1-1c2-1 3-3 7-3l-1 2 3-1c19 5 30-2 48 1-1-2 4-2 6-2 6 2 5-2 10 1 5 1-4-3 2-3-2 3 9 1 10 0h1-1c4 1 11 1 14-2 5 3 10 2 19-1 0 2 1 3 4 3 1-4 10 0 12-3h10c1-1-2-1-5-1l-3-1-2 1c-4 0-10 0-7 2-4-2-21-3-24 0-2-1-9-3-9-1 5 0-3 1-4 1 1-1 0-1-1-1l-4 2h1-1l2-2c-1-1-9 3-10 3l1-2c-10 1-16 4-24 1l-16 3-26 2v-2l2 1v-1c6-4 16-6 21-4 2-3 5-2 5-1l4-1c-2 0-1-1 0-1l3 1h3l-1-1c2-2 4 1 5-1h1l1 1c7-2 3-2 10-3 0 1-3 2 0 2 3-2 7-3 2-3l5-1c2 1-5 3 0 3l17-1c-1-2-8 0-7-3 7 2 8-1 18-2l1 2 1 1c2 1 13-1 12 2l8-2 1 1 1-1c2 0 1 2 4 2-2-3 8 0 6-2h1l1 1 16-1c-2 0-1 1 0 1l3-1-1 1h3c24 0 49-3 68 1-1-3 5-3 7-4l-4 3c14-1 25 0 37-2h2l-1-2h2l4 1c-1-1-1-2 1-2 3 2 8 1 7 3l4-2 2 1-1-1h2l2 1 2-1-1 1 2-1c1 4 2-2 6 1 0-1 1-3 3-3l9 1h1v-1c4 2 2 0 6-1-1 1 4 5 3 2l1-1-1-1c3 0 0-1 0-2l4-1v2c2 0 6 1 7-1-11 1 1-2-4-2h-3l1-1-1-1c1-1 2-1 0-1h-2l-4-1-2-1 1 2c-4 1-6-1-9 1 2 1 1 2 2 5h-3l1 1c-5-1-6 1-9-2v-3c3-1 3-3-1-3h-3l1 1h-7l-1-1h-3c-4 1-8 3-12 1l-3 1c-3 1-5-1-9-1h1-1c-1-2-3 2-5 1 0-1 3-3 0-1l-4 1h-3c-1 0-11-2-12-1l2 1h-7c-3-3-10 3-12 0l3-1-7 1 1-1h-3c-4 2-8 4-8 1-1 2-3 2-6 1h-2l1 1c-4 3-7-3-9-1h-2l-1-1c-4 0-4 2-7 3-6-4 0 0-4 1 0-2-3-2-5-3-9 3-11 0-14 3-5-1-9-1-9-3 0 1-1 2-3 2l-3-1 1 2c-5-1-3 1-7 1h-2v1l-5-2c0 2-3 0-3 1h-3l-2-1h-2c-1 4-13-1-14 3-5-2-7 1-7-2-7 2-7 3-16 2-3 1-1 2-3 3-1-1-5 0-2-2l1-2-2 1-7-1c0 1-2 1-2 3h-7l1-2-3 1-5 1-1-2-1-1h5l-1-2c4-1 2 1 5 1l2-1c2 1 0 0 0-1l1-2-1-1c0-3 5 2 5-1l2 1 1-1c4-1 6 2 6-1h10l19-4c2 4 9-2 9 2 2 0 1-1 1-2 4 0 4 2 2 3l11-2c5 0 0 5 5 3h1v1l6-1h1c-3-2-2 0-7 0l1-2h-2c-1-2 15-1 22-3h3l-1-1c1-1 2-1 2-3l2 1v-1c3-1 5-4 10-4 2 3 1 2-2 4 5-3 6-1 11-5l12 1c-9-2 5-1 7-3 2 0 0 2 3 2l-1 2 3-1c3 0 3 1 3 2l6-1c0 1-3 2 0 3 1-2 4-2 7-1-1-2 1-1 3-1h3l-1-1h5v-1l3 1 1 1 1-1 4 1-1 1h4l2 1 2-1c4-2 6 1 8-1l-1-1-1-1c2 0 2-1 2-2h3l1-1c6 1 0 2 3 3l9-1h3l2-1c4-3 17-1 16-5 16-3 35 0 43-2h3l2 1h18c0 3 8 1 12 1h2l-1-1c8 0 11-2 16-1 0-1-1-3 2-3 4 5 24 0 33 1-2 0-1 1 0 1 3 0 51 1 48-1 0-1-6 0-5-1l1-2-3 1v-2l2-1 2-1c2-1 3-3 9-2-8 2 1 2-2 4 3-1 6-3 3 0h2l-1 2 3 1c-3 1-6 1 1 1l2 1 2-1c1 0 12 2 14 0l1 1h13l5 1c12-5 36-1 50 1 3 0 1-3 5-3h-8c1-2 2-3 5-3l1 1 1-1c5-2 7 3 10-1 4 1-2 1 2 3 5-1 2-3 2-4 3 0 3 2 7 2v-1l2 1 1-2c4-1 3 1 5 2 2 0 2-2 0-2 7 0 8 1 14 4l-1 1h3c0 2-2 3-5 3 5-3-6-1-7-3 0 2 4 2 5 4h-3l3 1-2 1c4 4 11-2 14 3 4-1-2-2 0-4 2 1 3 3 3 1 2 1 0 3 6 4l-1 1h2c0 2 2 2 2 3h-5l-3-1 1 2c-9 1-7-2-14-3-1 6-12 1-10 2-4 0 2 2-4 2-4 0-19-2-22 3 0-2-1-2-4-3-2 1 0 2 0 1 6 4-12 4-13 7-2-1-1-3-4-3l1-1h-3c1-1 0-1-1-1-2 0-3 2 0 2v4c-6 2-9-1-14 2v-2l1-1-3 1-19-2c1 1 3 2 0 2-5-3-9 2-17 1l-2-2c2 0 1-1 0-1-1 1-4 0-4 2 1 2-8 2-12 1 3 0-2 4-3 4 0-2-6-3-9-3 4 3-8 0-9 2 3 0 3 2 0 2 1-1 0-1-1-1l-1-1-3 1c-3-4 5-6-3-3h-3l1 1c-2 0-1 1 0 1l-3 2h-1 1l-7 2c-1-2-7-2-7 0l-3-1-1 2c-2 2-12-1-14 1 7 0 10 2 14 0h5l4 1 1 1 1 2c-3 2-14 1-16 3 5 0 6 2 3-1 3 2 5-1 6 1-2 0-4 1-4 3l14-4c-1 1-2 2 0 2 9-2 10-3 14-6-2 1 5-5 7-3h2v-1c10-3-1 3 3 1 5-3 11 0 14-1h3l-1-1c7-1 1-2 7-3-1 2 0 3 3 3h5l2-2c-1 4 2 0 5 0l2 2c8 1 23-3 16 0 4 0 13 1 8-2 3 2 10-1 5 2 5 0 6-1 9-2l-2 2c14 1 28-2 40-1l-3 1c4 0 11 0 7-2l7 1c-2 0-1 1 0 1h3l-1 1h3c4 1-2 2 2 2 1-2 6 2 8 0 4 1 2 2 4 3 2-4 11 0 15-3-2 2 5 0 7 0 6 2-3 1 4 0 4 0 23 2 19 0a487 487 0 0 0 54 0c2-4 11 1 10 0-5-2-3-5 5-5l-1 2 3-1c0 2 1 1 4 1-3 1-1 1 0 3h-3 3c-4 5 6 6 3 4-5 2 1-4 3 0v1h2c1 3 10-1 12 0-2-1 5-3-1-5 8 1-3-2 3-2-1 4 13 2 14 0h3v-1c3-1 9-4 13-2l-3 1 1 1c2 1 1 3 5 3h2c2 1 5-2 5 1l9-1h2l-1-1c0-2 5-3 4 0l5-1 2 2 1 1 1-1 5 1 2 1h3c3 2 6-3 9-3l1 1c3-4-7-1-7-3h3l-1-2h4c5-3 3 2 10 1l3 1-1-2c2 0 5-3 7 0h-2l2 1-4 4h7l3 1 1-1c6 1 13-3 20 0 2-5-3-1-5-3l2-1-2-1h3l-1-1c6 0 5-2 9-2l3 3c-3-4 3-1 5-5 0 2 2 3 6 3-1-4 5 0 6 1v1h2c2 1 1 1 0 2h-2l-1 1c-2 0-1 1 0 1l-4 2c5 1 4-2 5-2l3-1-1-1 5-1h6c1 3 4-1 7-1l-4 3h10-1c6-1 5 2 7 2 3-2 8-2 12-1v-1h5l4-2 1 1h2c3 0 10 1 10-1l-3-1 2-1h3c14-2-2 6 7 2 2 2-4 3 0 4 15-1 20-3 31-2h4c1 3 3-1 5-1 0 1 0 2 2 2 1-4 5 1 7-1h3l5-1v1h2l7-1c-3-1 2 0 2-2-5 0-6 2-9 2v-1h-2l-3-2 3-1v-2h2l1 2 1-2c5 2 7-3 8-1v2h2l5 2v1h2c0 2 3 2 5 3 1-1-1-2-1-3l5 1c-4 1 3 1 8 1h2v-1c3 2 7 0 11-1v1h1c6-2 13 1 9-3-1 3-5-1-7 2l-1-1h-1c-5-1-6 0-3 1h-11v1c-5-1-8 0-12-2l3-1h-3l-1-2h2l-1-1c3-2 7-1 11-1h1v1l6-2h1v1c11 0 16-2 26-1v1l2 1h2l-1 1 1 1c0 1-1 3 2 3 0-5 3 5 3 0h3l1-1c3 0 5 5 10 2-5 0-6-2-9-3h2v-1c-1-1 1-2 4-2l1 1 2-1 3 1 3 1 3-1c2 4 6 1 0-1l-2-1-4 1v-1l4-2-5-1-2-2h3v-1c7 1 9 2 14 0v1h12l-1-1c4 0 8 0 8-2l-8 1-1-1-1 1c-3 1-3-1-7 1v-1h-2c-7 2-2-3-5-3-5 1 3 4-3 5 1-4-6-3-11-2h-2l1 2-4 1h-4l-1 2h-2l1-1-3-1c2 0 2-2 2-3-4 1-6-2-7 0h-7l-1-1h-2c-3-2-10-4-12-2l-1-1h-1l-4 1c0-4-1 1-5 1-4-4-5 0-17-3h-3l1 1c-3 2-13-2-21 1 9-1 0 2 7 3l-1 1 1 1-3 1h-5l-4-1 1-2h-3l-1-1c3 0-3-2-4-3-8 2-16-2-24 2l-1-1-3 1h-13c4-2-8-2-9 0-2-3-7 0-9 1l2-2h-23l1-2-2-1-2-1h12v-2l-3-1c-4 2-15 1-19 3 4-2-11 1-13-1l-2-1 1 2h-7l-6-1c-4 1-12 3-15 1l1-1-3 1v-1l-3-2c2 0 1-1 0-1v-1h-2c1 0 2-1 0-1l-3-2 1-2h7l-1 2h3c5 1 4 3 5 4 5-2 12-2 16-3-2-1-4-1-4-3l1-1-1-1c2 0 1-1 0-1 6-1 7 1 14 1l-3 2h3l1 2 1-2c3 1 1 3 5 1l3 1-1-2h7c-5 3 4-1 7 1-6-5 17-3 19-7 2 0 1 1 0 1 4 1 14 3 19 1l1 1h2l4-1 2 1-1-2h4l-1 2 3-1c2 0 3-1 3-2 2 1 3 2 9 1l2 1v-1" clip-rule="evenodd"/></clipPath><radialGradient id="d" cx="0" cy="0" r="5.5" fx="0" fy="0" gradientTransform="rotate(46 3119 1202)" gradientUnits="userSpaceOnUse"><stop offset="0" stop-color="#181413"/><stop offset="1" stop-color="#181413"/></radialGradient><radialGradient id="g" cx="0" cy="0" r="1623.2" fx="0" fy="0" gradientTransform="rotate(46 6851 11466)" gradientUnits="userSpaceOnUse"><stop offset="0" stop-color="#181413"/><stop offset="1" stop-color="#181413"/></radialGradient></defs><g clip-path="url(#a)" transform="translate(-461 -3254)"><g clip-path="url(#b)"><g clip-path="url(#c)"><path fill="url(#d)" d="M934 357v11h10v-11zm0 0" style="fill:url(#d)"/></g></g></g><g clip-path="url(#e)" transform="translate(-464 -3251)"><g clip-path="url(#f)"><path fill="url(#g)" d="m464 3231-6 391 3202 46 6-390zm0 0" style="fill:#cd84a6;fill-opacity:1"/></g></g></svg>